<svg width="128" height="128"  xmlns="http://www.w3.org/2000/svg" viewBox="0 0 128 128">
<defs><style>.cls-1,.cls-2{fill:#fff;}.cls-2{fill-rule:evenodd;}</style></defs>
<path class="cls-1" d="M49,49,24.1,79H14.84L27.36,64,15.25,49h9.17l7.5,9.38L39.66,49ZM33.36,71.35,39.63,79h9.15L38.09,65.74Z"/>
<path class="cls-2" d="M79,49v7.13H58.38c-2.46,0-6,2.6-6,7.87s3.54,7.88,6,7.88H69.62V79H58.38c-7.26,0-13.13-6.71-13.13-15s5.87-15,13.13-15ZM73.38,60.25H60.25v7.13H71.88V79H79V65.88a5.74,5.74,0,0,0-5.62-5.63Z"/>
<path class="cls-1" d="M101.14,52.75H91.77A12.78,12.78,0,0,0,80.52,65.88,12.78,12.78,0,0,0,91.77,79h9.37a12.76,12.76,0,0,0,11.25-13.12,12.74,12.74,0,0,0-11.25-13.13Zm0,19H91.77a6.47,6.47,0,0,1-3-9.49A5.75,5.75,0,0,1,91.81,60h9.37a5.75,5.75,0,0,1,4.07,5.89,5.76,5.76,0,0,1-4.11,5.83Z"/>
</svg>
