<svg width="128" height="128" viewBox="0 0 128 128" fill="none" xmlns="http://www.w3.org/2000/svg">
<path d="M49.0001 49L24.1001 79H14.8376L27.3626 64L15.2501 49H24.4189L31.9189 58.375L39.6626 49H49.0001ZM33.3626 71.35L39.6251 79H48.7751L38.0876 65.7438L33.3626 71.35Z" fill="black"/>
<path fill-rule="evenodd" clip-rule="evenodd" d="M79 49V56.125H58.375C55.9188 56.125 52.375 58.7313 52.375 64C52.375 69.2687 55.9188 71.875 58.375 71.875H69.625V79H58.375C51.1188 79 45.25 72.2875 45.25 64C45.25 55.7125 51.1188 49 58.375 49H79ZM73.375 60.25H60.25V67.375H71.875V79H79V65.875C78.9666 64.3937 78.3632 62.9822 77.3155 61.9345C76.2678 60.8868 74.8563 60.2834 73.375 60.25Z" fill="black"/>
<path d="M101.144 52.75H91.7687C88.5912 53.133 85.6728 54.6936 83.59 57.1236C81.5071 59.5536 80.4112 62.6763 80.5187 65.875C80.4112 69.0737 81.5071 72.1964 83.59 74.6264C85.6728 77.0564 88.5912 78.617 91.7687 79H101.144C104.323 78.6211 107.244 77.0617 109.327 74.6308C111.411 72.1998 112.506 69.0748 112.394 65.875C112.51 62.6741 111.417 59.5468 109.333 57.1149C107.248 54.683 104.325 53.1247 101.144 52.75ZM101.144 71.7063H91.7687C90.5371 71.3298 89.468 70.55 88.7334 69.4923C87.9988 68.4346 87.6414 67.1605 87.7187 65.875C87.6374 64.5767 87.9967 63.289 88.7386 62.2204C89.4804 61.1519 90.5614 60.3651 91.8062 59.9875H101.181C102.423 60.3685 103.499 61.1568 104.237 62.225C104.976 63.2933 105.332 64.5791 105.25 65.875C105.321 67.167 104.954 68.4452 104.209 69.5032C103.464 70.5612 102.384 71.3373 101.144 71.7063Z" fill="black"/>
</svg>
